<svg width="256" height="82" viewBox="0 0 256 82" fill="none" xmlns="http://www.w3.org/2000/svg">
<path d="M25.7294 81.4C22.3072 81.4 19.1072 81.0889 16.1294 80.4667C13.1961 79.8889 10.7294 79.1111 8.72943 78.1333C6.72943 77.1556 5.08498 76.2222 3.79609 75.3333C2.55165 74.4444 1.5072 73.5556 0.66276 72.6667L2.32943 56.4667C4.15165 58.9111 6.59609 61.0444 9.66276 62.8667C12.7294 64.6444 16.0405 65.5333 19.5961 65.5333C23.1516 65.5333 25.7072 65.1556 27.2628 64.4C28.8628 63.6444 29.6628 62.2667 29.6628 60.2667C29.6628 58.1333 28.7516 56.3111 26.9294 54.8C25.1517 53.2889 22.0628 51.4667 17.6628 49.3333C16.0628 48.5333 14.7072 47.8222 13.5961 47.2C12.485 46.5333 10.9961 45.4667 9.12943 44C7.3072 42.4889 5.81832 40.9333 4.66276 39.3333C3.5072 37.6889 2.48498 35.6 1.59609 33.0667C0.707205 30.4889 0.26276 27.7333 0.26276 24.8C0.26276 8.93334 9.21832 1 27.1294 1C29.9739 1 32.6405 1.31111 35.1294 1.93334C37.6628 2.51111 39.6405 3.15555 41.0628 3.86667C42.485 4.57778 43.7739 5.42222 44.9294 6.4C46.1294 7.33333 46.885 8 47.1961 8.4C47.5072 8.75556 47.7294 9.04445 47.8628 9.26667L44.5294 22.1333C42.7961 20.0889 40.6183 18.5778 37.9961 17.6C35.4183 16.5778 32.9516 16.0667 30.5961 16.0667C24.9072 16.0667 22.0628 17.8444 22.0628 21.4C22.0628 22.3333 22.2405 23.1778 22.5961 23.9333C22.9516 24.6889 23.5294 25.3778 24.3294 26C25.1294 26.6222 25.8628 27.1556 26.5294 27.6C27.2405 28.0444 28.1961 28.6 29.3961 29.2667C30.6405 29.8889 31.5739 30.4 32.1961 30.8C38.685 33.5556 43.4405 36.8222 46.4628 40.6C49.5294 44.3778 51.0628 48.9778 51.0628 54.4C51.0628 63.2 48.885 69.9111 44.5294 74.5333C40.2183 79.1111 33.9516 81.4 25.7294 81.4ZM80.1935 80H58.1268V1.86667H80.1935V32.8H97.3268V1.86667H119.393V80H97.3268V48.1333H80.1935V80ZM150.844 49.8C150.844 57.1778 151.4 62.3111 152.511 65.2C153.666 68.0889 155.666 69.5333 158.511 69.5333C160.6 69.5333 162.177 69.0222 163.244 68C164.311 66.9333 165.111 64.7778 165.644 61.5333C166.222 58.2444 166.511 53.3333 166.511 46.8V30.7333C166.511 24.3778 165.888 19.6444 164.644 16.5333C163.4 13.4222 161.355 11.8667 158.511 11.8667C155.666 11.8667 153.666 13.4 152.511 16.4667C151.4 19.4889 150.844 25.0222 150.844 33.0667V49.8ZM157.111 81.4C153.422 81.4 150.088 81.0667 147.111 80.4C144.177 79.7333 141.644 78.8 139.511 77.6C137.377 76.4 135.511 74.8667 133.911 73C132.355 71.1333 131.088 69.1333 130.111 67C129.177 64.8667 128.422 62.3778 127.844 59.5333C127.266 56.6444 126.866 53.7778 126.644 50.9333C126.422 48.0444 126.311 44.8 126.311 41.2C126.311 35.8667 126.577 31.2222 127.111 27.2667C127.688 23.3111 128.733 19.6 130.244 16.1333C131.755 12.6222 133.755 9.77778 136.244 7.6C138.777 5.42222 142.022 3.71111 145.977 2.46667C149.977 1.22222 154.688 0.600003 160.111 0.600003C163.844 0.600003 167.2 0.955559 170.177 1.66667C173.155 2.33334 175.711 3.26667 177.844 4.46667C179.977 5.66667 181.822 7.22222 183.377 9.13333C184.977 11.0444 186.244 13.0889 187.177 15.2667C188.155 17.4 188.933 19.9111 189.511 22.8C190.088 25.6889 190.488 28.5556 190.711 31.4C190.933 34.2444 191.044 37.4667 191.044 41.0667C191.044 46.4 190.755 51.0444 190.177 55C189.6 58.9556 188.555 62.6667 187.044 66.1333C185.533 69.5556 183.511 72.3556 180.977 74.5333C178.444 76.6667 175.177 78.3556 171.177 79.6C167.222 80.8 162.533 81.4 157.111 81.4ZM220.037 80H197.971V1.86667H206.771C209.126 1.86667 212.682 1.77778 217.437 1.6C222.193 1.37778 226.104 1.26667 229.171 1.26667C237.793 1.26667 244.326 3.55556 248.771 8.13333C253.215 12.7111 255.437 19.5778 255.437 28.7333C255.437 34.2444 254.704 39.2667 253.237 43.8C251.815 48.2889 249.882 51.9778 247.437 54.8667C244.993 57.7556 242.215 59.9778 239.104 61.5333C235.993 63.0889 232.704 63.8667 229.237 63.8667C228.793 63.8667 228.326 63.8667 227.837 63.8667C227.393 63.8667 226.971 63.8667 226.571 63.8667C226.215 63.8222 225.771 63.8 225.237 63.8C224.748 63.7556 224.348 63.7333 224.037 63.7333C223.771 63.6889 223.371 63.6667 222.837 63.6667C222.348 63.6222 222.015 63.6 221.837 63.6C221.659 63.6 221.326 63.5778 220.837 63.5333C220.348 63.4889 220.082 63.4667 220.037 63.4667V80ZM233.571 25.8C233.571 22.5111 232.682 19.8444 230.904 17.8C229.126 15.7556 226.571 14.7333 223.237 14.7333H220.037V49.4H222.504C226.015 49.4 228.726 48.2222 230.637 45.8667C232.593 43.5111 233.571 40.1111 233.571 35.6667V25.8Z" fill="#23211F"/>
</svg>
